:FULLY-SPECIFIED
:FORCE-ALL-JOINTS-BE-3DOF
:DEGREES
272
root 8.40668 16.1434 -25.1401 22.6869 70.2613 20.8871
lfemur -24.259 7.32474 -22.9468
ltibia 41.8781 0 0
lfoot -6.60324 -22.2494 0
ltoes 63.3874 0 0
rfemur -53.7246 -5.16221 14.161
rtibia 82.0604 0 0
rfoot 7.63667 -0.957826 0
rtoes 1.2289 0 0
lowerback 6.60763 -4.55928 -2.67338
upperback 1.67591 -6.24758 -2.00563
thorax -1.90033 -3.0856 -0.0686892
lowerneck -5.1024 -11.2314 -4.76779
upperneck 0.716122 -14.841 5.49797
head 1.925 -7.33378 1.97879
lclavicle 2.92894e-14 1.17764e-14 0
lhumerus -44.7537 -35.5946 106.966
lradius 59.1746 0 0
lwrist 20.3063 0 0
lhand 19.4307 15.0219 0
lfingers 7.12502 0 0
lthumb 44.001 38.8759 0
rclavicle 2.92894e-14 1.17764e-14 0
rhumerus -54.9149 3.71001 -96.2653
rradius 45.9829 0 0
rwrist 23.9559 0 0
rhand -24.555 3.36945 0
rfingers 7.12502 0 0
rthumb 1.94121 -746.599 0
273
root 8.43102 16.1426 -25.1293 22.9423 70.6924 21.307
lfemur -24.0526 7.05428 -23.0559
ltibia 41.8446 0 0
lfoot -6.41414 -22.5141 0
ltoes 63.5838 0 0
rfemur -54.4308 -5.3458 14.4123
rtibia 82.466 0 0
rfoot 7.44017 -0.685205 0
rtoes 1.33795 0 0
lowerback 6.7043 -4.59859 -2.70478
upperback 1.72299 -6.30373 -2.09917
thorax -1.90904 -3.11345 -0.139386
lowerneck -5.0117 -11.2975 -4.8215
upperneck 0.681695 -14.9309 5.59112
head 1.91142 -7.3776 2.01682
lclavicle 3.03565e-14 1.19354e-14 0
lhumerus -44.6283 -35.6284 106.729
lradius 59.1316 0 0
lwrist 20.3121 0 0
lhand 19.6689 15.0768 0
lfingers 7.12502 0 0
lthumb 44.2256 38.8675 0
rclavicle 3.03565e-14 1.19354e-14 0
rhumerus -55.1537 3.90666 -96.8533
rradius 46.0903 0 0
rwrist 23.5726 0 0
rhand -24.6953 3.46597 0
rfingers 7.12502 0 0
rthumb 1.80579 -746.505 0
274
root 8.4395 16.1423 -25.1255 23.0313 70.8426 21.4534
lfemur -23.9806 6.96001 -23.0939
ltibia 41.8329 0 0
lfoot -6.34822 -22.6063 0
ltoes 63.6522 0 0
rfemur -54.677 -5.40979 14.4999
rtibia 82.6074 0 0
rfoot 7.37167 -0.590177 0
rtoes 1.37596 0 0
lowerback 6.738 -4.61229 -2.71573
upperback 1.7394 -6.3233 -2.13178
thorax -1.91208 -3.12316 -0.164029
lowerneck -4.98008 -11.3206 -4.84023
upperneck 0.669695 -14.9622 5.62359
head 1.90668 -7.39287 2.03008
lclavicle 3.07285e-14 1.19908e-14 0
lhumerus -44.5846 -35.6402 106.647
lradius 59.1166 0 0
lwrist 20.3141 0 0
lhand 19.7519 15.0959 0
lfingers 7.12502 0 0
lthumb 44.3039 38.8645 0
rclavicle 3.07285e-14 1.19908e-14 0
rhumerus -55.2369 3.9752 -97.0583
rradius 46.1277 0 0
rwrist 23.439 0 0
rhand -24.7442 3.49961 0
rfingers 7.12502 0 0
rthumb 1.75858 -746.473 0
275
root 8.44695 16.1365 -25.1185 23.0873 70.8754 21.5709
lfemur -23.9183 6.98874 -23.076
ltibia 41.9214 0 0
lfoot -6.39841 -22.6764 0
ltoes 63.6111 0 0
rfemur -54.5793 -5.40594 14.5734
rtibia 82.4001 0 0
rfoot 7.32025 -0.70809 0
rtoes 1.67991 0 0
lowerback 6.73941 -4.61409 -2.74839
upperback 1.75709 -6.32607 -2.14402
thorax -1.89202 -3.12502 -0.159662
lowerneck -4.9651 -11.3263 -4.85125
upperneck 0.686867 -14.9718 5.64319
head 1.9135 -7.39748 2.03798
lclavicle 2.99078e-14 1.18935e-14 0
lhumerus -44.5589 -35.6661 106.609
lradius 59.1266 0 0
lwrist 20.3097 0 0
lhand 19.758 15.1003 0
lfingers 7.12502 0 0
lthumb 44.3096 38.8667 0
rclavicle 2.99078e-14 1.18935e-14 0
rhumerus -55.3581 4.16714 -97.1185
rradius 46.3263 0 0
rwrist 23.3975 0 0
rhand -24.7571 3.40475 0
rfingers 7.12502 0 0
rthumb 1.7461 -746.568 0
